<svg id="Layer_2" data-name="Layer 2" xmlns="http://www.w3.org/2000/svg" xmlns:xlink="http://www.w3.org/1999/xlink" viewBox="0 0 1003.5 263.7"><defs><linearGradient id="linear-gradient" x1="936.65" y1="-55.15" x2="936.65" y2="248.54" gradientUnits="userSpaceOnUse"><stop offset="0" stop-color="#fff" stop-opacity="0"/><stop offset=".07" stop-color="#dbe0ff" stop-opacity=".17"/><stop offset=".16" stop-color="#b1bcff" stop-opacity=".36"/><stop offset=".26" stop-color="#8b9bff" stop-opacity=".53"/><stop offset=".36" stop-color="#6c80ff" stop-opacity=".68"/><stop offset=".47" stop-color="#526aff" stop-opacity=".79"/><stop offset=".58" stop-color="#3e59ff" stop-opacity=".88"/><stop offset=".7" stop-color="#304cff" stop-opacity=".95"/><stop offset=".83" stop-color="#2845ff" stop-opacity=".99"/><stop offset="1" stop-color="#2543ff"/></linearGradient><linearGradient id="linear-gradient-2" x1="808.37" y1="-55.44" x2="808.37" y2="247.47" xlink:href="#linear-gradient"/><linearGradient id="linear-gradient-3" x1="701.96" y1="-61.44" x2="701.96" y2="249.35" xlink:href="#linear-gradient"/><linearGradient id="linear-gradient-4" x1="590.5" y1="-55.03" x2="590.5" y2="248.53" xlink:href="#linear-gradient"/><linearGradient id="linear-gradient-5" x1="467.54" y1="-55.15" x2="467.54" y2="248.54" xlink:href="#linear-gradient"/><linearGradient id="linear-gradient-6" x1="343.92" y1="-52" x2="343.92" y2="248.14" xlink:href="#linear-gradient"/><linearGradient id="linear-gradient-7" x1="206.67" y1="-55.44" x2="206.67" y2="247.47" xlink:href="#linear-gradient"/><linearGradient id="linear-gradient-8" x1="72.62" y1="-53.3" x2="72.62" y2="253.8" xlink:href="#linear-gradient"/><style>.cls-2{fill:#fff}</style></defs><path fill="url(#linear-gradient)" d="M873.8 214.2v-16.8l11.7-11.7V105l-11.7-11.8v-15l26.3-26.3h14.4l14.3 14.3v9.6h16.4v-9.6l14.3-14.3h15.3l24.7 24.7v27.1l-14.2 14.2h-39.2v-11.5h-5.4v107.8h-66.9z"/><path class="cls-2" d="M973.1 55.9l22.4 22.4V102l-11.8 11.9h-33.6v-11.5h-13.4v107.8h-58.9v-11.1l11.7-11.7v-84.1l-11.7-11.7V79.8l23.9-23.9h11.1l12 12v11.9h24.4V67.9l12-12h11.9m3.3-8h-18.6l-2.3 2.3-12 12-2.3 2.3v7.3h-8.4v-7.3l-2.3-2.3-12-12-2.4-2.3h-17.7l-2.3 2.3-24 24-2.3 2.3v18.4l2.3 2.3 9.4 9.4V184l-9.4 9.4-2.3 2.4v22.4h74.9v-96.3H987l2.3-2.4 11.9-11.8 2.3-2.4V75l-2.3-2.4-22.4-22.4-2.4-2.3z"/><path fill="url(#linear-gradient-2)" d="M771.8 240.6l-31.5-44.9 44.3 29.5 16-16V204h-11.2l-49.8-49.8V77.3l13.9-13.9h52.7v28.7l-11.3 11.3v34l21.1 21.1h19.4v-58.4l-8-8v-17l11-11h38.7v79.4l-8.9 8.9v36.8l-69.3 69.4-27.1-18z"/><path class="cls-2" d="M802.2 67.4v23.1l-11.3 11.3V139l23.5 23.5h25v-64l-8-8V76.7l8.7-8.6h33v73.8l-8.9 8.9v36.8l-65.8 65.8-23.7-15.7-18.9-26.8 29.3 19.5 19.5-19.5V200h-13.5l-47.5-47.5V78.9l11.6-11.5h47m8-8h-58.3l-2.4 2.4L738 73.3l-2.4 2.3v80.3l2.4 2.3 47.4 47.4 2.4 2.4h8.4l-12.1 12.1-23.8-15.9-35.6-23.7 24.6 34.9 18.8 26.9.9 1.2 1.2.9 23.8 15.7 5.4 3.6 4.7-4.6 65.8-65.9 2.3-2.3v-36.8l6.6-6.6 2.3-2.3V60.1h-44.3l-2.4 2.3-8.6 8.7-2.4 2.3v20.4l2.4 2.3 5.6 5.7v52.7h-13.7l-18.8-18.8v-30.6l8.9-9 2.4-2.3V59.4z"/><path fill="url(#linear-gradient-3)" d="M684.1 214.2l-22.6-22.6v-85.2h-12V76.1h14.4l54.4-54.9v53.6H743v31.6h-24.7v64.5h6.7l17.2-17.2 12.2 12.2v22.4l-25.8 25.9h-44.5z"/><path class="cls-2" d="M714.3 30.9v47.9H739v23.6h-24.7v72.5h12.3l15.6-15.5 8.2 8.2v19.1l-23.5 23.5h-41.2L665.5 190v-87.6h-12V80.1h12l48.8-49.2m8-19.3l-13.6 13.7-46.5 46.8h-16.7v38.3h12v82.9l2.4 2.3 20.2 20.2 2.3 2.4h47.8l2.4-2.4 23.5-23.5 2.3-2.3v-25.7l-2.3-2.4-8.2-8.2-5.7-5.6-5.6 5.6-13.3 13.2h-1v-56.5H747V70.8h-24.7V11.6z"/><path d="M529.4 214.2l-14.3-14.3v-74.3l14.3-14.3h74.1l-16.3-16.2H545L527.1 113V65.8l15.2-15.2H625l27.8 27.8v92.3h13.1v31.5h-15.4l-12 12zm68.2-31.5v-39.5h-16v39.5z" fill="url(#linear-gradient-4)"/><path class="cls-2" d="M623.3 54.6l25.5 25.5v94.6h13.1v23.5h-13.1l-12 12H531.1l-12-12v-70.9l12-12h82l-24.2-24.2h-45.6l-12.2 12.2V67.4l12.8-12.8h79.4m-45.7 132.1h24v-47.5h-24v47.5m49-140.1h-86l-2.3 2.3-12.9 12.9-2.3 2.3V112l-9.6 9.6-2.4 2.4v77.5l2.4 2.4 11.9 11.9 2.4 2.4h112.3l2.4-2.4 9.6-9.6h17.8v-39.5h-13.1v-90l-2.3-2.3L629 48.9l-2.4-2.3zm-80 52.5h39l8.2 8.2h-55.4l8.2-8.2zm39 48.1h8v31.5h-8v-31.5z"/><path fill="url(#linear-gradient-5)" d="M404.7 214.2v-16.8l11.7-11.7V105l-11.7-11.8v-15L431 51.9h14.4l14.3 14.3v9.6h16.4v-9.6l14.3-14.3h15.3l24.7 24.7v27.1l-14.2 14.2h-39.3v-11.5h-5.4v107.8h-66.8z"/><path class="cls-2" d="M504 55.9l22.4 22.4V102l-11.9 11.9h-33.6v-11.5h-13.4v107.8h-58.8v-11.1l11.7-11.7v-84.1l-11.7-11.7V79.8l23.9-23.9h11.1l12 12v11.9h24.4V67.9l11.9-12h12m3.3-8h-18.6l-2.3 2.3-12 12-2.3 2.3v7.3h-8.4v-7.3l-2.4-2.3-11.9-12-2.4-2.3h-17.7l-2.3 2.3-24 24-2.3 2.3v18.4l2.3 2.3 9.4 9.4V184l-9.4 9.4-2.3 2.4v22.4h74.8v-96.3h42.3l2.4-2.4 11.9-11.8 2.3-2.4V75l-2.3-2.4-22.4-22.4-2.4-2.3z"/><path d="M364.1 214.2v-12.4H344l-12.4 12.4h-23.2l-36.3-36.3V87.3l35.1-35.2h24.4l14 14h4.6v-20l-10.3-10.3V12h18.5l8-8h31.3L408 14.3v158.8l7.7 7.7v10.6L393 214.2zm-13.9-43.5V94.5h-29.7l-9.2 9.2v45.9l21.1 21.1z" fill="url(#linear-gradient-6)"/><path class="cls-2" d="M396 8l8 8v158.7l7.7 7.8v7.3l-20.4 20.4h-23.2v-12.4h-25.8l-12.4 12.4H310l-33.9-33.9V88.9l32.8-32.8h21l14 14h10.3V44.5l-10.3-10.3V16h16.2l8-8H396m-65.2 166.7h23.4V90.5h-35.3L307.3 102v49.3l23.5 23.4M399.3 0h-34.5l-2.4 2.3-5.6 5.7h-20.9v29.5l2.4 2.3 7.9 8v13.3l-10.6-10.6-2.4-2.4h-27.6l-2.4 2.4-32.8 32.8-2.3 2.3v94l2.3 2.3 34 33.9 2.3 2.4h26.5l2.4-2.4 10.1-10h14.4v12.4h34.5l2.4-2.4 20.4-20.4 2.3-2.3v-13.9l-2.3-2.4-5.4-5.4V12.7l-2.4-2.4-7.9-8-2.4-2.3zm-77.1 98.5h24v68.2h-12.1L315.3 148v-42.7l6.9-6.8z"/><path fill="url(#linear-gradient-7)" d="M170.1 240.6l-31.5-44.9 44.3 29.5 16-16V204h-11.2l-49.8-49.8V77.3l13.9-13.9h52.7v28.7l-11.3 11.3v34l21.1 21.1h19.4v-58.4l-8-8v-17l11-11h38.7v79.4l-8.9 8.9v36.8l-69.3 69.4-27.1-18z"/><path class="cls-2" d="M200.5 67.4v23.1l-11.3 11.3V139l23.5 23.5h25v-64l-8-8V76.7l8.7-8.6h33v73.8l-8.9 8.9v36.8l-65.8 65.8-23.7-15.7-18.9-26.8 29.3 19.5 19.5-19.5V200h-13.5l-47.5-47.5V78.9l11.6-11.5h47m8-8h-58.4l-2.3 2.4-11.5 11.5-2.4 2.3v80.3l2.4 2.3 47.4 47.4 2.4 2.4h8.3l-12 12.1-23.8-15.9-35.6-23.7 24.6 34.9 18.8 26.9.9 1.2 1.2.9 23.8 15.7 5.4 3.6 4.6-4.6 65.9-65.9 2.3-2.3v-36.8l6.6-6.6 2.3-2.3V60.1h-44.3l-2.4 2.3-8.6 8.7-2.4 2.3v20.4l2.4 2.3 5.6 5.7v52.7H216l-18.8-18.8v-30.6l8.9-9 2.4-2.3V59.4z"/><path fill="url(#linear-gradient-8)" d="M85 207.6l13.9-40.7v-38L73 103l-13.3 13.3v56.3l10.7 10.8v30.8H4V21.9L21.9 4h48.6v59.4h46.9l23.8 23.9v94.8l-36.2 37-59.9 16L85 207.6z"/><path class="cls-2" d="M66.5 8v59.4h49.2l21.5 21.5v91.6l-34.3 35-36.5 9.8 21.9-15.1 14.6-42.6v-40.3L73 97.3l-17.3 17.3v59.7L66.4 185v25.2H8V23.5L23.5 8h43m8-8H20.2l-2.3 2.3L2.3 17.9 0 20.2v198h62.6l-.7.5-38.1 26.2L68.5 233l36.4-9.7 2.2-.6 1.5-1.6 34.4-35 2.2-2.3V85.6l-2.3-2.3-21.5-21.5-2.3-2.4H74.5V0zM63.7 117.9l9.3-9.2 21.9 21.9v35.7l-13.3 38.8-7.2 4.9v-28.3l-2.3-2.3-8.4-8.4v-53.1z"/></svg>