<svg data-name="Layer 2" xmlns="http://www.w3.org/2000/svg" xmlns:xlink="http://www.w3.org/1999/xlink" viewBox="0 0 987.5 245.4"><defs><linearGradient id="a" x1="928.6" y1="-53.9" x2="928.6" y2="234.8" gradientUnits="userSpaceOnUse"><stop offset="0" stop-color="#fff" stop-opacity="0"/><stop offset=".1" stop-color="#dbe0ff" stop-opacity=".2"/><stop offset=".2" stop-color="#b1bcff" stop-opacity=".4"/><stop offset=".3" stop-color="#8b9bff" stop-opacity=".5"/><stop offset=".4" stop-color="#6c80ff" stop-opacity=".7"/><stop offset=".5" stop-color="#526aff" stop-opacity=".8"/><stop offset=".6" stop-color="#3e59ff" stop-opacity=".9"/><stop offset=".7" stop-color="#304cff" stop-opacity=".9"/><stop offset=".8" stop-color="#2845ff"/><stop offset="1" stop-color="#2543ff"/></linearGradient><linearGradient id="b" x1="800.4" y1="-53.9" x2="800.4" y2="234.8" xlink:href="#a"/><linearGradient id="c" x1="693.6" y1="-53.9" x2="693.6" y2="234.8" xlink:href="#a"/><linearGradient id="d" x1="582.5" y1="-53.9" x2="582.5" y2="234.8" xlink:href="#a"/><linearGradient id="e" x1="461.2" y1="-53.9" x2="461.2" y2="234.8" xlink:href="#a"/><linearGradient id="f" x1="335.9" y1="-53.9" x2="335.9" y2="234.8" xlink:href="#a"/><linearGradient id="g" x1="198.7" y1="-53.9" x2="198.7" y2="234.8" xlink:href="#a"/><linearGradient id="h" x1="64.6" y1="-53.9" x2="64.6" y2="234.8" xlink:href="#a"/></defs><path fill="url(#a)" d="M965.1 47.9h-11.9l-12 12v11.9h-24.4V59.9l-12-12h-11.1l-20.6 20.6v18.4l8.4 8.4v84l-11.7 11.8v11.1h58.9V94.4h13.4v11.5h33.6L987.5 94V70.3l-22.4-22.4z"/><path fill="url(#b)" d="M832.1 60.1l-8.7 8.6v13.8l8 8v64h-25L782.9 131V93.8l11.3-11.3V59.4h-47l-8.2 8.2v34.8h-3.4v42.1l47.5 47.5h13.5v10.8l-19.5 19.6-29.3-19.6 18.9 26.9 23.7 15.7 65.8-65.8v-36.8l8.9-8.9V60.1h-33z"/><path fill="url(#c)" d="M730.2 155.4l-11.6 11.5h-12.3V94.4H731V70.8h-24.7V22.9l-48.8 49.2h-8.7v22.3h8.7v64.3h4.4v27.6l15.8 15.9h41.2l19.5-19.5v-19.1l-8.2-8.2z"/><path d="M640.8 166.7V72.1l-25.5-25.5h-79.4l-12.8 12.8v4.3l1 .9 2.3 2.4v25l8.9-8.9h45.6l24.2 24.2h-82l-12 12v70.9l12 12h105.7l12-12h13.1v-23.5zm-47.2 12h-24v-47.5h24z" fill="url(#d)"/><path fill="url(#e)" d="M496 47.9h-12l-11.9 12v11.9h-24.4V59.9l-12-12h-11.1L404 68.5v18.4l8.4 8.4v90.9l-4.9 4.9v11.1h52V94.4h13.4v11.5h33.6L518.4 94V70.3L496 47.9z"/><path d="M396 166.7V8l-8-8h-27.9l-8 8h-16.2v18.2l10.3 10.3v25.6h-10.3l-14-14h-21l-29.5 29.5v59.6l-2.3 2.3-1 1v27.8l33.9 33.9h19.9l12.4-12.4h25.8v12.4h23.2l20.4-20.4v-7.3zm-49.8 0h-23.4l-23.5-23.4V94l11.6-11.5h35.3z" fill="url(#f)"/><path fill="url(#g)" d="M230.4 60.1l-8.7 8.6v13.8l8 8v64h-25L181.2 131V93.8l11.3-11.3V59.4h-47l-11.6 11.5v3.4l1 1 2.3 2.3v70.3l44.2 44.1h13.5v10.8l-19.5 19.6-29.3-19.6 18.9 26.9 23.7 15.7 65.8-65.8v-36.8l8.9-8.9V60.1h-33z"/><path fill="url(#h)" d="M94.9 207.5l34.3-35V80.9l-21.5-21.5H58.5V0h-43L0 15.5v186.7h58.4V177l-10.7-10.7v-59.7L65 89.3l29.9 30v40.3l-14.6 42.6-21.9 15.1 36.5-9.8z"/></svg>